<?xml version="1.0" encoding="UTF-8"?>
<svg xmlns="http://www.w3.org/2000/svg" width="1200" height="675" viewBox="0 0 1200 675">
  <defs>
    <linearGradient id="bg" x1="0%" y1="0%" x2="100%" y2="100%">
      <stop offset="0%" stop-color="#ffffff"/>
      <stop offset="100%" stop-color="#daf2ff"/>
    </linearGradient>
    <pattern id="dotgrid" x="0" y="0" width="42" height="42" patternUnits="userSpaceOnUse">
      <circle cx="21" cy="21" r="1.4" fill="#8cc8e8" opacity="0.38"/>
    </pattern>
  </defs>

  <!-- Background -->
  <rect width="1200" height="675" fill="url(#bg)"/>
  <rect width="1200" height="675" fill="url(#dotgrid)"/>

  <!-- Soft glow ellipse behind figure (depth) -->
  <ellipse cx="300" cy="365" rx="228" ry="280" fill="#c5e8f8" opacity="0.32"/>

  <!-- ================================================================
       HUMAN FIGURE — walking stride, physiotherapy context
       ================================================================ -->
  <g stroke="#1e2761" fill="none" stroke-linecap="round" stroke-linejoin="round">
    <!-- Torso — slight forward lean -->
    <line x1="294" y1="200" x2="298" y2="348" stroke-width="22"/>
    <!-- Left arm — raised forward/up (active rehab limb) -->
    <line x1="280" y1="233" x2="218" y2="185" stroke-width="15"/>
    <line x1="218" y1="185" x2="193" y2="160" stroke-width="13"/>
    <!-- Right arm — back for balance -->
    <line x1="310" y1="233" x2="374" y2="274" stroke-width="15"/>
    <line x1="374" y1="274" x2="398" y2="298" stroke-width="13"/>
    <!-- Left leg — stride forward -->
    <line x1="286" y1="348" x2="256" y2="456" stroke-width="19"/>
    <line x1="256" y1="456" x2="228" y2="552" stroke-width="17"/>
    <!-- Right leg — stride back -->
    <line x1="306" y1="348" x2="334" y2="450" stroke-width="19"/>
    <line x1="334" y1="450" x2="355" y2="545" stroke-width="17"/>
  </g>

  <!-- Head -->
  <circle cx="290" cy="166" r="35" fill="#1e2761"/>

  <!-- Foot plates -->
  <ellipse cx="228" cy="562" rx="24" ry="8" fill="#1e2761" opacity="0.52"/>
  <ellipse cx="355" cy="554" rx="23" ry="8" fill="#1e2761" opacity="0.46"/>

  <!-- Ground reference line -->
  <line x1="140" y1="572" x2="460" y2="572" stroke="#1e2761" stroke-width="1.2" opacity="0.12"/>

  <!-- BORDEAUX accent — active rehabilitation arm -->
  <g stroke="#7a2048" fill="none" stroke-linecap="round" opacity="0.72">
    <line x1="280" y1="233" x2="218" y2="185" stroke-width="7.5"/>
    <line x1="218" y1="185" x2="193" y2="160" stroke-width="6.5"/>
  </g>
  <!-- Hand node (endpoint) -->
  <circle cx="193" cy="160" r="11" fill="#7a2048" opacity="0.85"/>
  <!-- Soft halo around hand -->
  <circle cx="193" cy="160" r="20" fill="#7a2048" opacity="0.10"/>

  <!-- Motion lines near head (kinetic feel) -->
  <g stroke="#1e2761" stroke-linecap="round" opacity="0.16">
    <line x1="158" y1="165" x2="176" y2="165" stroke-width="2.5"/>
    <line x1="152" y1="151" x2="172" y2="155" stroke-width="2"/>
    <line x1="154" y1="179" x2="174" y2="175" stroke-width="2"/>
    <line x1="158" y1="138" x2="176" y2="143" stroke-width="1.8"/>
  </g>

  <!-- Dashed orbit arc around figure -->
  <circle cx="294" cy="362" r="265" fill="none" stroke="#1e2761"
          stroke-width="1" stroke-dasharray="5 16" opacity="0.08"/>

  <!-- ================================================================
       CHART / DATA VISUALIZATION — evidence scatter + trend
       ================================================================ -->

  <!-- Chart panel -->
  <rect x="568" y="125" width="588" height="390" rx="8"
        fill="white" fill-opacity="0.52" stroke="#c2dff0" stroke-width="1.5"/>

  <!-- Grid lines (light) -->
  <g stroke="#c8e8f5" stroke-width="1" opacity="0.95">
    <line x1="614" y1="192" x2="1130" y2="192"/>
    <line x1="614" y1="256" x2="1130" y2="256"/>
    <line x1="614" y1="320" x2="1130" y2="320"/>
    <line x1="614" y1="384" x2="1130" y2="384"/>
    <line x1="614" y1="448" x2="1130" y2="448"/>
    <line x1="692" y1="145" x2="692" y2="480"/>
    <line x1="770" y1="145" x2="770" y2="480"/>
    <line x1="848" y1="145" x2="848" y2="480"/>
    <line x1="926" y1="145" x2="926" y2="480"/>
    <line x1="1004" y1="145" x2="1004" y2="480"/>
    <line x1="1082" y1="145" x2="1082" y2="480"/>
  </g>

  <!-- Axes -->
  <line x1="614" y1="145" x2="614" y2="480" stroke="#1e2761" stroke-width="1.5" opacity="0.38"/>
  <line x1="614" y1="480" x2="1140" y2="480" stroke="#1e2761" stroke-width="1.5" opacity="0.38"/>

  <!-- Axis tick marks -->
  <g stroke="#1e2761" stroke-width="1.2" opacity="0.3">
    <line x1="608" y1="192" x2="614" y2="192"/>
    <line x1="608" y1="256" x2="614" y2="256"/>
    <line x1="608" y1="320" x2="614" y2="320"/>
    <line x1="608" y1="384" x2="614" y2="384"/>
    <line x1="692" y1="480" x2="692" y2="486"/>
    <line x1="770" y1="480" x2="770" y2="486"/>
    <line x1="848" y1="480" x2="848" y2="486"/>
    <line x1="926" y1="480" x2="926" y2="486"/>
    <line x1="1004" y1="480" x2="1004" y2="486"/>
    <line x1="1082" y1="480" x2="1082" y2="486"/>
  </g>

  <!-- Area under trend curve -->
  <path d="M624,458 C665,444 706,428 748,410 C790,392 832,370 874,346
           C916,322 958,294 1000,264 C1032,240 1065,215 1098,190 L1098,480 L624,480 Z"
        fill="#dff2ff" opacity="0.65"/>

  <!-- Confidence interval band (dashed, light) -->
  <path d="M624,468 C665,455 706,440 748,422 C790,405 832,384 874,360
           C916,336 958,308 1000,278 C1032,254 1065,228 1098,202"
        stroke="#1e2761" stroke-width="1.1" fill="none" opacity="0.22" stroke-dasharray="5 5"/>
  <path d="M624,448 C665,434 706,418 748,399 C790,380 832,358 874,333
           C916,309 958,281 1000,250 C1032,226 1065,200 1098,177"
        stroke="#1e2761" stroke-width="1.1" fill="none" opacity="0.22" stroke-dasharray="5 5"/>

  <!-- Main trend line -->
  <path d="M624,458 C665,444 706,428 748,410 C790,392 832,370 874,346
           C916,322 958,294 1000,264 C1032,240 1065,215 1098,190"
        stroke="#1e2761" stroke-width="2.8" stroke-linecap="round"
        fill="none" opacity="0.82"/>

  <!-- Scatter data points (navy) -->
  <g fill="#1e2761" opacity="0.68">
    <circle cx="632" cy="462" r="4.5"/>
    <circle cx="652" cy="452" r="4"/>
    <circle cx="674" cy="440" r="4.5"/>
    <circle cx="698" cy="428" r="4"/>
    <circle cx="718" cy="418" r="4.5"/>
    <circle cx="738" cy="410" r="4"/>
    <circle cx="758" cy="400" r="4.5"/>
    <circle cx="780" cy="390" r="4"/>
    <circle cx="802" cy="378" r="4.5"/>
    <circle cx="824" cy="366" r="4"/>
    <circle cx="845" cy="355" r="4.5"/>
    <circle cx="868" cy="342" r="4"/>
    <circle cx="890" cy="330" r="4.5"/>
    <circle cx="910" cy="320" r="4"/>
    <circle cx="932" cy="308" r="4.5"/>
    <circle cx="955" cy="294" r="4"/>
    <circle cx="976" cy="280" r="4.5"/>
    <circle cx="998" cy="266" r="4"/>
    <circle cx="1018" cy="254" r="4.5"/>
    <circle cx="1042" cy="238" r="4"/>
    <circle cx="1062" cy="224" r="4.5"/>
    <circle cx="1082" cy="212" r="4"/>
    <circle cx="1098" cy="200" r="4.5"/>
  </g>

  <!-- Bordeaux key data points with ring + error bars (significant findings) -->
  <!-- Point 1 -->
  <line x1="718" y1="402" x2="718" y2="434" stroke="#7a2048" stroke-width="1.3" opacity="0.45"/>
  <line x1="712" y1="402" x2="724" y2="402" stroke="#7a2048" stroke-width="1.3" opacity="0.45"/>
  <line x1="712" y1="434" x2="724" y2="434" stroke="#7a2048" stroke-width="1.3" opacity="0.45"/>
  <circle cx="718" cy="418" r="11" fill="none" stroke="#7a2048" stroke-width="1.6" opacity="0.58"/>
  <circle cx="718" cy="418" r="6.5" fill="#7a2048" opacity="0.88"/>

  <!-- Point 2 -->
  <line x1="845" y1="338" x2="845" y2="372" stroke="#7a2048" stroke-width="1.3" opacity="0.45"/>
  <line x1="839" y1="338" x2="851" y2="338" stroke="#7a2048" stroke-width="1.3" opacity="0.45"/>
  <line x1="839" y1="372" x2="851" y2="372" stroke="#7a2048" stroke-width="1.3" opacity="0.45"/>
  <circle cx="845" cy="355" r="11" fill="none" stroke="#7a2048" stroke-width="1.6" opacity="0.58"/>
  <circle cx="845" cy="355" r="6.5" fill="#7a2048" opacity="0.88"/>

  <!-- Point 3 -->
  <line x1="976" y1="264" x2="976" y2="296" stroke="#7a2048" stroke-width="1.3" opacity="0.45"/>
  <line x1="970" y1="264" x2="982" y2="264" stroke="#7a2048" stroke-width="1.3" opacity="0.45"/>
  <line x1="970" y1="296" x2="982" y2="296" stroke="#7a2048" stroke-width="1.3" opacity="0.45"/>
  <circle cx="976" cy="280" r="11" fill="none" stroke="#7a2048" stroke-width="1.6" opacity="0.58"/>
  <circle cx="976" cy="280" r="6.5" fill="#7a2048" opacity="0.88"/>

  <!-- Point 4 -->
  <circle cx="1062" cy="224" r="11" fill="none" stroke="#7a2048" stroke-width="1.6" opacity="0.55"/>
  <circle cx="1062" cy="224" r="6.5" fill="#7a2048" opacity="0.82"/>

  <!-- ================================================================
       MOLECULAR STRUCTURE — top right corner
       ================================================================ -->
  <g transform="translate(1002, 44)" opacity="0.88">
    <!-- Bonds -->
    <g stroke="#1e2761" stroke-width="2.2" fill="none" stroke-linecap="round">
      <line x1="32" y1="28" x2="74" y2="18"/>
      <line x1="74" y1="18" x2="108" y2="42"/>
      <line x1="108" y1="42" x2="100" y2="80"/>
      <line x1="100" y1="80" x2="60" y2="88"/>
      <line x1="60" y1="88" x2="32" y2="64"/>
      <line x1="32" y1="28" x2="32" y2="64"/>
      <line x1="74" y1="18" x2="74" y2="-6"/>
      <line x1="108" y1="42" x2="138" y2="32"/>
      <line x1="100" y1="80" x2="118" y2="105"/>
      <line x1="60" y1="88" x2="44" y2="112"/>
    </g>
    <!-- Atoms -->
    <g fill="#1e2761">
      <circle cx="32" cy="28" r="9"/>
      <circle cx="74" cy="18" r="11"/>
      <circle cx="108" cy="42" r="9"/>
      <circle cx="100" cy="80" r="9"/>
      <circle cx="60" cy="88" r="9"/>
      <circle cx="32" cy="64" r="7.5"/>
      <circle cx="74" cy="-6" r="6.5"/>
      <circle cx="138" cy="32" r="6.5"/>
      <circle cx="118" cy="105" r="6.5"/>
      <circle cx="44" cy="112" r="6.5"/>
    </g>
    <!-- Bordeaux highlighted central atom -->
    <circle cx="74" cy="18" r="15" fill="none" stroke="#7a2048" stroke-width="2" opacity="0.65"/>
    <circle cx="74" cy="18" r="11" fill="#7a2048" opacity="0.62"/>
    <circle cx="74" cy="18" r="6" fill="#1e2761"/>
  </g>

  <!-- ================================================================
       ECG / HEARTBEAT LINE — bottom center (health monitoring)
       ================================================================ -->
  <path d="M490,618 L545,618 L562,596 L575,640 L588,576 L601,642 L614,618 L680,618"
        stroke="#7a2048" stroke-width="2.0" fill="none" stroke-linecap="round"
        stroke-linejoin="round" opacity="0.38"/>

  <!-- ================================================================
       EVIDENCE PROGRESS BARS — bottom left
       ================================================================ -->
  <g transform="translate(55, 568)">
    <!-- Tracks -->
    <rect x="0" y="0"  width="310" height="9" rx="4.5" fill="#c8e5f5"/>
    <rect x="0" y="22" width="310" height="9" rx="4.5" fill="#c8e5f5"/>
    <rect x="0" y="44" width="310" height="9" rx="4.5" fill="#c8e5f5"/>
    <!-- Fills -->
    <rect x="0" y="0"  width="232" height="9" rx="4.5" fill="#1e2761" opacity="0.48"/>
    <rect x="0" y="22" width="276" height="9" rx="4.5" fill="#1e2761" opacity="0.42"/>
    <rect x="0" y="44" width="190" height="9" rx="4.5" fill="#7a2048" opacity="0.58"/>
    <!-- End caps -->
    <circle cx="232" cy="4.5" r="6" fill="#1e2761" opacity="0.62"/>
    <circle cx="276" cy="26.5" r="6" fill="#1e2761" opacity="0.56"/>
    <circle cx="190" cy="48.5" r="6" fill="#7a2048" opacity="0.75"/>
  </g>

  <!-- ================================================================
       DATA CLUSTER — bottom right corner (scatter suggestion)
       ================================================================ -->
  <g fill="#1e2761" opacity="0.18">
    <circle cx="1065" cy="585" r="24"/>
    <circle cx="1105" cy="564" r="15"/>
    <circle cx="1046" cy="562" r="17"/>
    <circle cx="1090" cy="605" r="12"/>
    <circle cx="1130" cy="596" r="9"/>
    <circle cx="1145" cy="572" r="7"/>
    <circle cx="1158" cy="556" r="5"/>
  </g>
  <circle cx="1065" cy="585" r="11" fill="#7a2048" opacity="0.15"/>

  <!-- ================================================================
       SUBTLE CONNECTOR — figure to chart (flowing dots)
       ================================================================ -->
  <g fill="#1e2761" opacity="0.15">
    <circle cx="468" cy="302" r="3.5"/>
    <circle cx="498" cy="296" r="3"/>
    <circle cx="526" cy="290" r="2.5"/>
    <circle cx="552" cy="286" r="2"/>
    <circle cx="574" cy="282" r="1.5"/>
  </g>

</svg>
